<mxfile host="65bd71144e" pages="2">
    <diagram id="jNiWiKzihHuXaXgrSJh1" name="总体流程图">
        <mxGraphModel dx="881" dy="766" grid="1" gridSize="10" guides="1" tooltips="1" connect="1" arrows="1" fold="1" page="1" pageScale="1" pageWidth="850" pageHeight="1100" math="0" shadow="0">
            <root>
                <mxCell id="0"/>
                <mxCell id="1" parent="0"/>
                <mxCell id="2" value="&lt;font style=&quot;font-size: 23px;&quot;&gt;开始&lt;/font&gt;" style="strokeWidth=2;html=1;shape=mxgraph.flowchart.start_1;whiteSpace=wrap;" parent="1" vertex="1">
                    <mxGeometry x="369" y="20" width="100" height="60" as="geometry"/>
                </mxCell>
                <mxCell id="4" value="" style="endArrow=classic;html=1;fontSize=23;strokeWidth=2;" parent="1" edge="1">
                    <mxGeometry width="50" height="50" relative="1" as="geometry">
                        <mxPoint x="418" y="80" as="sourcePoint"/>
                        <mxPoint x="418" y="140" as="targetPoint"/>
                    </mxGeometry>
                </mxCell>
                <mxCell id="5" value="声音片段输入" style="rounded=1;whiteSpace=wrap;html=1;fontSize=23;" parent="1" vertex="1">
                    <mxGeometry x="342" y="140" width="155" height="60" as="geometry"/>
                </mxCell>
                <mxCell id="6" value="" style="endArrow=classic;html=1;fontSize=23;strokeWidth=2;" parent="1" edge="1">
                    <mxGeometry width="50" height="50" relative="1" as="geometry">
                        <mxPoint x="418" y="200" as="sourcePoint"/>
                        <mxPoint x="418" y="260" as="targetPoint"/>
                    </mxGeometry>
                </mxCell>
                <mxCell id="7" value="特征提取" style="rounded=1;whiteSpace=wrap;html=1;fontSize=23;" parent="1" vertex="1">
                    <mxGeometry x="342" y="260" width="155" height="60" as="geometry"/>
                </mxCell>
                <mxCell id="8" value="环境耦合特征" style="ellipse;whiteSpace=wrap;html=1;fontSize=23;" parent="1" vertex="1">
                    <mxGeometry x="202" y="390" width="140" height="80" as="geometry"/>
                </mxCell>
                <mxCell id="20" style="edgeStyle=none;html=1;exitX=1;exitY=1;exitDx=0;exitDy=0;exitPerimeter=0;strokeWidth=2;fontSize=18;" parent="1" source="9" edge="1">
                    <mxGeometry relative="1" as="geometry">
                        <mxPoint x="270" y="390" as="targetPoint"/>
                    </mxGeometry>
                </mxCell>
                <mxCell id="21" style="edgeStyle=none;html=1;exitX=1;exitY=0;exitDx=0;exitDy=0;exitPerimeter=0;strokeWidth=2;fontSize=18;" parent="1" source="9" edge="1">
                    <mxGeometry relative="1" as="geometry">
                        <mxPoint x="570" y="390" as="targetPoint"/>
                    </mxGeometry>
                </mxCell>
                <mxCell id="9" value="" style="strokeWidth=2;html=1;shape=mxgraph.flowchart.annotation_2;align=left;labelPosition=right;pointerEvents=1;fontSize=23;rotation=90;" parent="1" vertex="1">
                    <mxGeometry x="394.5" y="200" width="50" height="300" as="geometry"/>
                </mxCell>
                <mxCell id="11" value="固有特征" style="ellipse;whiteSpace=wrap;html=1;fontSize=23;" parent="1" vertex="1">
                    <mxGeometry x="497" y="390" width="140" height="80" as="geometry"/>
                </mxCell>
                <mxCell id="22" style="edgeStyle=none;html=1;exitX=0;exitY=0.5;exitDx=0;exitDy=0;exitPerimeter=0;strokeWidth=2;fontSize=18;" parent="1" source="12" edge="1">
                    <mxGeometry relative="1" as="geometry">
                        <mxPoint x="420" y="540" as="targetPoint"/>
                    </mxGeometry>
                </mxCell>
                <mxCell id="12" value="" style="strokeWidth=2;html=1;shape=mxgraph.flowchart.annotation_2;align=left;labelPosition=right;pointerEvents=1;fontSize=23;rotation=-90;" parent="1" vertex="1">
                    <mxGeometry x="394.5" y="350" width="50" height="300" as="geometry"/>
                </mxCell>
                <mxCell id="13" value="预处理" style="rounded=1;whiteSpace=wrap;html=1;fontSize=23;" parent="1" vertex="1">
                    <mxGeometry x="342" y="540.12" width="155" height="60" as="geometry"/>
                </mxCell>
                <mxCell id="14" value="&lt;font style=&quot;font-size: 18px;&quot;&gt;全部输入到LSTM特征提取器&lt;/font&gt;" style="rounded=1;whiteSpace=wrap;html=1;fontSize=23;" parent="1" vertex="1">
                    <mxGeometry x="104" y="670" width="155" height="60" as="geometry"/>
                </mxCell>
                <mxCell id="15" value="&lt;font style=&quot;font-size: 19px;&quot;&gt;全部输入到CNN特征提取器&lt;/font&gt;" style="rounded=1;whiteSpace=wrap;html=1;fontSize=23;" parent="1" vertex="1">
                    <mxGeometry x="341.5" y="670" width="155" height="60" as="geometry"/>
                </mxCell>
                <mxCell id="16" value="&lt;font style=&quot;font-size: 18px;&quot;&gt;全部输入到Transformer特征提取器&lt;/font&gt;" style="rounded=1;whiteSpace=wrap;html=1;fontSize=23;" parent="1" vertex="1">
                    <mxGeometry x="544" y="670" width="190" height="60" as="geometry"/>
                </mxCell>
                <mxCell id="23" style="edgeStyle=none;html=1;exitX=1;exitY=1;exitDx=0;exitDy=0;exitPerimeter=0;strokeWidth=2;fontSize=18;" parent="1" source="17" edge="1">
                    <mxGeometry relative="1" as="geometry">
                        <mxPoint x="188.5" y="670" as="targetPoint"/>
                    </mxGeometry>
                </mxCell>
                <mxCell id="24" style="edgeStyle=none;html=1;exitX=1;exitY=0;exitDx=0;exitDy=0;exitPerimeter=0;strokeWidth=2;fontSize=18;" parent="1" source="17" edge="1">
                    <mxGeometry relative="1" as="geometry">
                        <mxPoint x="648.5" y="670" as="targetPoint"/>
                    </mxGeometry>
                </mxCell>
                <mxCell id="17" value="" style="strokeWidth=2;html=1;shape=mxgraph.flowchart.annotation_2;align=left;labelPosition=right;pointerEvents=1;fontSize=23;rotation=90;" parent="1" vertex="1">
                    <mxGeometry x="393.5" y="400" width="49.5" height="459.75" as="geometry"/>
                </mxCell>
                <mxCell id="19" value="" style="endArrow=classic;html=1;strokeWidth=2;fontSize=18;" parent="1" edge="1">
                    <mxGeometry width="50" height="50" relative="1" as="geometry">
                        <mxPoint x="418.5" y="630" as="sourcePoint"/>
                        <mxPoint x="418.5" y="670" as="targetPoint"/>
                    </mxGeometry>
                </mxCell>
                <mxCell id="25" value="" style="endArrow=classic;html=1;strokeWidth=2;fontSize=18;" parent="1" edge="1">
                    <mxGeometry width="50" height="50" relative="1" as="geometry">
                        <mxPoint x="194" y="730" as="sourcePoint"/>
                        <mxPoint x="194" y="780" as="targetPoint"/>
                    </mxGeometry>
                </mxCell>
                <mxCell id="26" value="" style="endArrow=classic;html=1;strokeWidth=2;fontSize=18;" parent="1" edge="1">
                    <mxGeometry width="50" height="50" relative="1" as="geometry">
                        <mxPoint x="417.75" y="730" as="sourcePoint"/>
                        <mxPoint x="417.75" y="780" as="targetPoint"/>
                    </mxGeometry>
                </mxCell>
                <mxCell id="27" value="" style="endArrow=classic;html=1;strokeWidth=2;fontSize=18;" parent="1" edge="1">
                    <mxGeometry width="50" height="50" relative="1" as="geometry">
                        <mxPoint x="644" y="730" as="sourcePoint"/>
                        <mxPoint x="644" y="780" as="targetPoint"/>
                    </mxGeometry>
                </mxCell>
                <mxCell id="28" value="&lt;font style=&quot;font-size: 17px;&quot;&gt;得到LSTM特征向量&lt;/font&gt;" style="rounded=1;whiteSpace=wrap;html=1;fontSize=23;" parent="1" vertex="1">
                    <mxGeometry x="104" y="780" width="155" height="60" as="geometry"/>
                </mxCell>
                <mxCell id="29" value="&lt;font style=&quot;font-size: 17px;&quot;&gt;得到CNN特征向量&lt;/font&gt;" style="rounded=1;whiteSpace=wrap;html=1;fontSize=23;" parent="1" vertex="1">
                    <mxGeometry x="334" y="780" width="155" height="60" as="geometry"/>
                </mxCell>
                <mxCell id="30" value="&lt;font style=&quot;font-size: 17px;&quot;&gt;得到Transformer特征向量&lt;/font&gt;" style="rounded=1;whiteSpace=wrap;html=1;fontSize=23;" parent="1" vertex="1">
                    <mxGeometry x="544" y="780" width="202.5" height="60" as="geometry"/>
                </mxCell>
                <mxCell id="33" style="edgeStyle=none;html=1;exitX=0;exitY=0.5;exitDx=0;exitDy=0;exitPerimeter=0;strokeWidth=2;fontSize=17;" parent="1" source="31" edge="1">
                    <mxGeometry relative="1" as="geometry">
                        <mxPoint x="420" y="910" as="targetPoint"/>
                    </mxGeometry>
                </mxCell>
                <mxCell id="31" value="" style="strokeWidth=2;html=1;shape=mxgraph.flowchart.annotation_2;align=left;labelPosition=right;pointerEvents=1;fontSize=23;rotation=-90;" parent="1" vertex="1">
                    <mxGeometry x="394.5" y="640" width="50" height="460" as="geometry"/>
                </mxCell>
                <mxCell id="32" value="" style="endArrow=none;html=1;strokeWidth=2;fontSize=17;" parent="1" edge="1">
                    <mxGeometry width="50" height="50" relative="1" as="geometry">
                        <mxPoint x="419" y="880" as="sourcePoint"/>
                        <mxPoint x="419" y="840" as="targetPoint"/>
                    </mxGeometry>
                </mxCell>
                <mxCell id="34" value="&lt;font style=&quot;font-size: 17px;&quot;&gt;转换为.CSV格式&lt;/font&gt;" style="rounded=1;whiteSpace=wrap;html=1;fontSize=23;" parent="1" vertex="1">
                    <mxGeometry x="340.75" y="910" width="155" height="60" as="geometry"/>
                </mxCell>
                <mxCell id="35" value="" style="endArrow=classic;html=1;strokeWidth=2;fontSize=17;" parent="1" edge="1">
                    <mxGeometry width="50" height="50" relative="1" as="geometry">
                        <mxPoint x="419" y="970" as="sourcePoint"/>
                        <mxPoint x="419" y="1020" as="targetPoint"/>
                    </mxGeometry>
                </mxCell>
                <mxCell id="36" value="&lt;font style=&quot;font-size: 17px;&quot;&gt;存入数据库&lt;/font&gt;" style="rounded=1;whiteSpace=wrap;html=1;fontSize=23;" parent="1" vertex="1">
                    <mxGeometry x="340.75" y="1020" width="155" height="60" as="geometry"/>
                </mxCell>
            </root>
        </mxGraphModel>
    </diagram>
    <diagram id="BgpNGhTzBJn38Rn7BgdJ" name="特征提取器流程图">
        <mxGraphModel dx="881" dy="766" grid="1" gridSize="10" guides="1" tooltips="1" connect="1" arrows="1" fold="1" page="1" pageScale="1" pageWidth="850" pageHeight="1100" math="0" shadow="0">
            <root>
                <mxCell id="0"/>
                <mxCell id="1" parent="0"/>
                <mxCell id="e2mROCKKTBzTqhAvFIZO-1" value="&lt;font style=&quot;font-size: 23px;&quot;&gt;开始&lt;/font&gt;" style="strokeWidth=2;html=1;shape=mxgraph.flowchart.start_1;whiteSpace=wrap;" parent="1" vertex="1">
                    <mxGeometry x="369" y="20" width="100" height="60" as="geometry"/>
                </mxCell>
                <mxCell id="e2mROCKKTBzTqhAvFIZO-2" value="" style="endArrow=classic;html=1;fontSize=23;strokeWidth=2;" parent="1" edge="1">
                    <mxGeometry width="50" height="50" relative="1" as="geometry">
                        <mxPoint x="418" y="80" as="sourcePoint"/>
                        <mxPoint x="418" y="140" as="targetPoint"/>
                    </mxGeometry>
                </mxCell>
                <mxCell id="e2mROCKKTBzTqhAvFIZO-3" value="声音片段输入" style="rounded=1;whiteSpace=wrap;html=1;fontSize=23;" parent="1" vertex="1">
                    <mxGeometry x="342" y="140" width="155" height="60" as="geometry"/>
                </mxCell>
                <mxCell id="e2mROCKKTBzTqhAvFIZO-4" value="" style="endArrow=classic;html=1;fontSize=23;strokeWidth=2;" parent="1" edge="1">
                    <mxGeometry width="50" height="50" relative="1" as="geometry">
                        <mxPoint x="418" y="200" as="sourcePoint"/>
                        <mxPoint x="418" y="260" as="targetPoint"/>
                    </mxGeometry>
                </mxCell>
                <mxCell id="e2mROCKKTBzTqhAvFIZO-5" value="特征提取" style="rounded=1;whiteSpace=wrap;html=1;fontSize=23;" parent="1" vertex="1">
                    <mxGeometry x="342" y="260" width="155" height="60" as="geometry"/>
                </mxCell>
                <mxCell id="e2mROCKKTBzTqhAvFIZO-6" value="环境耦合特征" style="ellipse;whiteSpace=wrap;html=1;fontSize=23;" parent="1" vertex="1">
                    <mxGeometry x="202" y="390" width="140" height="80" as="geometry"/>
                </mxCell>
                <mxCell id="e2mROCKKTBzTqhAvFIZO-7" style="edgeStyle=none;html=1;exitX=1;exitY=1;exitDx=0;exitDy=0;exitPerimeter=0;strokeWidth=2;fontSize=18;" parent="1" source="e2mROCKKTBzTqhAvFIZO-9" edge="1">
                    <mxGeometry relative="1" as="geometry">
                        <mxPoint x="270" y="390" as="targetPoint"/>
                    </mxGeometry>
                </mxCell>
                <mxCell id="e2mROCKKTBzTqhAvFIZO-8" style="edgeStyle=none;html=1;exitX=1;exitY=0;exitDx=0;exitDy=0;exitPerimeter=0;strokeWidth=2;fontSize=18;" parent="1" source="e2mROCKKTBzTqhAvFIZO-9" edge="1">
                    <mxGeometry relative="1" as="geometry">
                        <mxPoint x="570" y="390" as="targetPoint"/>
                    </mxGeometry>
                </mxCell>
                <mxCell id="e2mROCKKTBzTqhAvFIZO-9" value="" style="strokeWidth=2;html=1;shape=mxgraph.flowchart.annotation_2;align=left;labelPosition=right;pointerEvents=1;fontSize=23;rotation=90;" parent="1" vertex="1">
                    <mxGeometry x="394.5" y="200" width="50" height="300" as="geometry"/>
                </mxCell>
                <mxCell id="e2mROCKKTBzTqhAvFIZO-10" value="固有特征" style="ellipse;whiteSpace=wrap;html=1;fontSize=23;" parent="1" vertex="1">
                    <mxGeometry x="497" y="390" width="140" height="80" as="geometry"/>
                </mxCell>
                <mxCell id="e2mROCKKTBzTqhAvFIZO-11" style="edgeStyle=none;html=1;exitX=0;exitY=0.5;exitDx=0;exitDy=0;exitPerimeter=0;strokeWidth=2;fontSize=18;" parent="1" source="e2mROCKKTBzTqhAvFIZO-12" edge="1">
                    <mxGeometry relative="1" as="geometry">
                        <mxPoint x="420" y="540" as="targetPoint"/>
                    </mxGeometry>
                </mxCell>
                <mxCell id="e2mROCKKTBzTqhAvFIZO-12" value="" style="strokeWidth=2;html=1;shape=mxgraph.flowchart.annotation_2;align=left;labelPosition=right;pointerEvents=1;fontSize=23;rotation=-90;" parent="1" vertex="1">
                    <mxGeometry x="394.5" y="350" width="50" height="300" as="geometry"/>
                </mxCell>
                <mxCell id="e2mROCKKTBzTqhAvFIZO-13" value="特征分组与处理" style="rounded=1;whiteSpace=wrap;html=1;fontSize=23;" parent="1" vertex="1">
                    <mxGeometry x="335.5" y="540.12" width="168" height="60" as="geometry"/>
                </mxCell>
                <mxCell id="e2mROCKKTBzTqhAvFIZO-31" value="&lt;font style=&quot;font-size: 17px;&quot;&gt;保存特征提取器为.pth格式&lt;/font&gt;" style="rounded=1;whiteSpace=wrap;html=1;fontSize=23;" parent="1" vertex="1">
                    <mxGeometry x="316" y="1320" width="205" height="60" as="geometry"/>
                </mxCell>
                <mxCell id="e2mROCKKTBzTqhAvFIZO-32" value="" style="endArrow=classic;html=1;strokeWidth=2;fontSize=17;" parent="1" edge="1">
                    <mxGeometry width="50" height="50" relative="1" as="geometry">
                        <mxPoint x="419.25" y="1380" as="sourcePoint"/>
                        <mxPoint x="419.25" y="1430" as="targetPoint"/>
                    </mxGeometry>
                </mxCell>
                <mxCell id="e2mROCKKTBzTqhAvFIZO-33" value="&lt;font style=&quot;font-size: 17px;&quot;&gt;存入数据库&lt;/font&gt;" style="rounded=1;whiteSpace=wrap;html=1;fontSize=23;" parent="1" vertex="1">
                    <mxGeometry x="341" y="1430" width="155" height="60" as="geometry"/>
                </mxCell>
                <mxCell id="gZfe-ZNjESl-4GzTCOM5-1" value="" style="endArrow=classic;html=1;fontSize=23;strokeWidth=2;" parent="1" edge="1">
                    <mxGeometry width="50" height="50" relative="1" as="geometry">
                        <mxPoint x="418.5" y="600.12" as="sourcePoint"/>
                        <mxPoint x="418.5" y="660.12" as="targetPoint"/>
                    </mxGeometry>
                </mxCell>
                <mxCell id="gZfe-ZNjESl-4GzTCOM5-2" value="遍历特征分组列表" style="rounded=1;whiteSpace=wrap;html=1;fontSize=23;" parent="1" vertex="1">
                    <mxGeometry x="301" y="660" width="237" height="60" as="geometry"/>
                </mxCell>
                <mxCell id="gZfe-ZNjESl-4GzTCOM5-3" value="&lt;font style=&quot;font-size: 19px;&quot;&gt;2特征输入？3特征输入？&lt;/font&gt;" style="rhombus;whiteSpace=wrap;html=1;" parent="1" vertex="1">
                    <mxGeometry x="306.88" y="780" width="224.25" height="80" as="geometry"/>
                </mxCell>
                <mxCell id="gZfe-ZNjESl-4GzTCOM5-4" value="" style="endArrow=classic;html=1;fontSize=23;strokeWidth=2;" parent="1" edge="1">
                    <mxGeometry width="50" height="50" relative="1" as="geometry">
                        <mxPoint x="418.5" y="719.9999999999999" as="sourcePoint"/>
                        <mxPoint x="418.5" y="779.9999999999999" as="targetPoint"/>
                    </mxGeometry>
                </mxCell>
                <mxCell id="gZfe-ZNjESl-4GzTCOM5-5" value="" style="endArrow=classic;html=1;fontSize=23;strokeWidth=2;" parent="1" edge="1">
                    <mxGeometry width="50" height="50" relative="1" as="geometry">
                        <mxPoint x="418.5" y="860" as="sourcePoint"/>
                        <mxPoint x="418.5" y="920" as="targetPoint"/>
                    </mxGeometry>
                </mxCell>
                <mxCell id="gZfe-ZNjESl-4GzTCOM5-6" value="2特征" style="text;html=1;align=center;verticalAlign=middle;resizable=0;points=[];autosize=1;strokeColor=none;fillColor=none;fontSize=19;" parent="1" vertex="1">
                    <mxGeometry x="425" y="860" width="70" height="40" as="geometry"/>
                </mxCell>
                <mxCell id="gZfe-ZNjESl-4GzTCOM5-7" value="&lt;font style=&quot;font-size: 22px;&quot;&gt;输入到2输入特征提取器&lt;/font&gt;" style="rounded=1;whiteSpace=wrap;html=1;fontSize=23;" parent="1" vertex="1">
                    <mxGeometry x="300.5" y="920" width="237" height="60" as="geometry"/>
                </mxCell>
                <mxCell id="gZfe-ZNjESl-4GzTCOM5-8" value="&lt;font style=&quot;font-size: 22px;&quot;&gt;输入到3输入特征提取器&lt;/font&gt;" style="rounded=1;whiteSpace=wrap;html=1;fontSize=23;" parent="1" vertex="1">
                    <mxGeometry x="600" y="790" width="237" height="60" as="geometry"/>
                </mxCell>
                <mxCell id="gZfe-ZNjESl-4GzTCOM5-9" value="" style="endArrow=classic;html=1;fontSize=22;entryX=0;entryY=0.5;entryDx=0;entryDy=0;strokeWidth=2;" parent="1" target="gZfe-ZNjESl-4GzTCOM5-8" edge="1">
                    <mxGeometry width="50" height="50" relative="1" as="geometry">
                        <mxPoint x="530" y="820" as="sourcePoint"/>
                        <mxPoint x="580" y="770" as="targetPoint"/>
                    </mxGeometry>
                </mxCell>
                <mxCell id="gZfe-ZNjESl-4GzTCOM5-10" value="&lt;font style=&quot;font-size: 22px;&quot;&gt;模型训练&lt;/font&gt;" style="rounded=1;whiteSpace=wrap;html=1;fontSize=23;" parent="1" vertex="1">
                    <mxGeometry x="349.5" y="1070" width="139" height="60" as="geometry"/>
                </mxCell>
                <mxCell id="gZfe-ZNjESl-4GzTCOM5-11" value="3特征" style="text;html=1;align=center;verticalAlign=middle;resizable=0;points=[];autosize=1;strokeColor=none;fillColor=none;fontSize=19;" parent="1" vertex="1">
                    <mxGeometry x="530" y="780" width="70" height="40" as="geometry"/>
                </mxCell>
                <mxCell id="gZfe-ZNjESl-4GzTCOM5-12" value="" style="endArrow=classic;html=1;strokeWidth=2;fontSize=22;" parent="1" edge="1">
                    <mxGeometry width="50" height="50" relative="1" as="geometry">
                        <mxPoint x="419" y="980" as="sourcePoint"/>
                        <mxPoint x="419" y="1070" as="targetPoint"/>
                    </mxGeometry>
                </mxCell>
                <mxCell id="gZfe-ZNjESl-4GzTCOM5-13" value="" style="endArrow=none;html=1;strokeWidth=2;fontSize=22;entryX=0.5;entryY=1;entryDx=0;entryDy=0;" parent="1" target="gZfe-ZNjESl-4GzTCOM5-8" edge="1">
                    <mxGeometry width="50" height="50" relative="1" as="geometry">
                        <mxPoint x="420" y="1020" as="sourcePoint"/>
                        <mxPoint x="730" y="930" as="targetPoint"/>
                        <Array as="points">
                            <mxPoint x="719" y="1020"/>
                        </Array>
                    </mxGeometry>
                </mxCell>
                <mxCell id="gZfe-ZNjESl-4GzTCOM5-14" value="" style="endArrow=classic;html=1;fontSize=23;strokeWidth=2;" parent="1" edge="1">
                    <mxGeometry width="50" height="50" relative="1" as="geometry">
                        <mxPoint x="418.5" y="1130" as="sourcePoint"/>
                        <mxPoint x="418.5" y="1190" as="targetPoint"/>
                    </mxGeometry>
                </mxCell>
                <mxCell id="gZfe-ZNjESl-4GzTCOM5-15" value="&lt;font style=&quot;font-size: 22px;&quot;&gt;固定模型并生成特征提取器&lt;/font&gt;" style="rounded=1;whiteSpace=wrap;html=1;fontSize=23;" parent="1" vertex="1">
                    <mxGeometry x="282.5" y="1190" width="274" height="60" as="geometry"/>
                </mxCell>
                <mxCell id="1HN0WLPIxA3C8t6dNU7Y-1" value="" style="endArrow=classic;html=1;strokeWidth=2;" parent="1" edge="1">
                    <mxGeometry width="50" height="50" relative="1" as="geometry">
                        <mxPoint x="419" y="1250" as="sourcePoint"/>
                        <mxPoint x="419" y="1320" as="targetPoint"/>
                    </mxGeometry>
                </mxCell>
            </root>
        </mxGraphModel>
    </diagram>
    <diagram id="I0Nga9kUSLmxpMQIqgzL" name="模型预训练">
        <mxGraphModel dx="881" dy="766" grid="1" gridSize="10" guides="1" tooltips="1" connect="1" arrows="1" fold="1" page="1" pageScale="1" pageWidth="850" pageHeight="1100" math="0" shadow="0">
            <root>
                <mxCell id="0"/>
                <mxCell id="1" parent="0"/>
                <mxCell id="anJ-4cLYIhTmXqpNFNdk-1" value="&lt;font style=&quot;font-size: 23px;&quot;&gt;开始&lt;/font&gt;" style="strokeWidth=2;html=1;shape=mxgraph.flowchart.start_1;whiteSpace=wrap;" vertex="1" parent="1">
                    <mxGeometry x="369" y="20" width="100" height="60" as="geometry"/>
                </mxCell>
                <mxCell id="anJ-4cLYIhTmXqpNFNdk-2" value="" style="endArrow=classic;html=1;fontSize=23;strokeWidth=2;" edge="1" parent="1">
                    <mxGeometry width="50" height="50" relative="1" as="geometry">
                        <mxPoint x="418" y="80" as="sourcePoint"/>
                        <mxPoint x="418" y="140" as="targetPoint"/>
                    </mxGeometry>
                </mxCell>
                <mxCell id="anJ-4cLYIhTmXqpNFNdk-3" value="输入17个特征" style="rounded=1;whiteSpace=wrap;html=1;fontSize=23;" vertex="1" parent="1">
                    <mxGeometry x="342" y="140" width="155" height="60" as="geometry"/>
                </mxCell>
                <mxCell id="anJ-4cLYIhTmXqpNFNdk-4" value="" style="endArrow=classic;html=1;fontSize=23;strokeWidth=2;" edge="1" parent="1">
                    <mxGeometry width="50" height="50" relative="1" as="geometry">
                        <mxPoint x="418" y="200" as="sourcePoint"/>
                        <mxPoint x="418" y="260" as="targetPoint"/>
                    </mxGeometry>
                </mxCell>
                <mxCell id="anJ-4cLYIhTmXqpNFNdk-5" value="预处理" style="rounded=1;whiteSpace=wrap;html=1;fontSize=23;" vertex="1" parent="1">
                    <mxGeometry x="342" y="260" width="155" height="60" as="geometry"/>
                </mxCell>
                <mxCell id="anJ-4cLYIhTmXqpNFNdk-13" value="特征分组与处理" style="rounded=1;whiteSpace=wrap;html=1;fontSize=23;" vertex="1" parent="1">
                    <mxGeometry x="333" y="390" width="168" height="60" as="geometry"/>
                </mxCell>
                <mxCell id="anJ-4cLYIhTmXqpNFNdk-14" value="&lt;font style=&quot;font-size: 17px;&quot;&gt;保存特征提取器为.pth格式&lt;/font&gt;" style="rounded=1;whiteSpace=wrap;html=1;fontSize=23;" vertex="1" parent="1">
                    <mxGeometry x="313.5" y="1169.88" width="205" height="60" as="geometry"/>
                </mxCell>
                <mxCell id="anJ-4cLYIhTmXqpNFNdk-15" value="" style="endArrow=classic;html=1;strokeWidth=2;fontSize=17;" edge="1" parent="1">
                    <mxGeometry width="50" height="50" relative="1" as="geometry">
                        <mxPoint x="416.75" y="1229.88" as="sourcePoint"/>
                        <mxPoint x="416.75" y="1279.88" as="targetPoint"/>
                    </mxGeometry>
                </mxCell>
                <mxCell id="anJ-4cLYIhTmXqpNFNdk-16" value="&lt;font style=&quot;font-size: 17px;&quot;&gt;存入数据库&lt;/font&gt;" style="rounded=1;whiteSpace=wrap;html=1;fontSize=23;" vertex="1" parent="1">
                    <mxGeometry x="338.5" y="1279.88" width="155" height="60" as="geometry"/>
                </mxCell>
                <mxCell id="anJ-4cLYIhTmXqpNFNdk-17" value="" style="endArrow=classic;html=1;fontSize=23;strokeWidth=2;" edge="1" parent="1">
                    <mxGeometry width="50" height="50" relative="1" as="geometry">
                        <mxPoint x="416" y="449.9999999999999" as="sourcePoint"/>
                        <mxPoint x="416" y="509.9999999999999" as="targetPoint"/>
                    </mxGeometry>
                </mxCell>
                <mxCell id="anJ-4cLYIhTmXqpNFNdk-18" value="遍历特征分组列表" style="rounded=1;whiteSpace=wrap;html=1;fontSize=23;" vertex="1" parent="1">
                    <mxGeometry x="298.5" y="509.88" width="237" height="60" as="geometry"/>
                </mxCell>
                <mxCell id="anJ-4cLYIhTmXqpNFNdk-19" value="&lt;font style=&quot;font-size: 19px;&quot;&gt;2特征输入？3特征输入？&lt;/font&gt;" style="rhombus;whiteSpace=wrap;html=1;" vertex="1" parent="1">
                    <mxGeometry x="304.38" y="629.88" width="224.25" height="80" as="geometry"/>
                </mxCell>
                <mxCell id="anJ-4cLYIhTmXqpNFNdk-20" value="" style="endArrow=classic;html=1;fontSize=23;strokeWidth=2;" edge="1" parent="1">
                    <mxGeometry width="50" height="50" relative="1" as="geometry">
                        <mxPoint x="416" y="569.88" as="sourcePoint"/>
                        <mxPoint x="416" y="629.88" as="targetPoint"/>
                    </mxGeometry>
                </mxCell>
                <mxCell id="anJ-4cLYIhTmXqpNFNdk-21" value="" style="endArrow=classic;html=1;fontSize=23;strokeWidth=2;" edge="1" parent="1">
                    <mxGeometry width="50" height="50" relative="1" as="geometry">
                        <mxPoint x="416" y="709.88" as="sourcePoint"/>
                        <mxPoint x="416" y="769.88" as="targetPoint"/>
                    </mxGeometry>
                </mxCell>
                <mxCell id="anJ-4cLYIhTmXqpNFNdk-22" value="2特征" style="text;html=1;align=center;verticalAlign=middle;resizable=0;points=[];autosize=1;strokeColor=none;fillColor=none;fontSize=19;" vertex="1" parent="1">
                    <mxGeometry x="422.5" y="709.88" width="70" height="40" as="geometry"/>
                </mxCell>
                <mxCell id="anJ-4cLYIhTmXqpNFNdk-23" value="&lt;font style=&quot;font-size: 22px;&quot;&gt;输入到2输入特征提取器&lt;/font&gt;" style="rounded=1;whiteSpace=wrap;html=1;fontSize=23;" vertex="1" parent="1">
                    <mxGeometry x="298" y="769.88" width="237" height="60" as="geometry"/>
                </mxCell>
                <mxCell id="anJ-4cLYIhTmXqpNFNdk-24" value="&lt;font style=&quot;font-size: 22px;&quot;&gt;输入到3输入特征提取器&lt;/font&gt;" style="rounded=1;whiteSpace=wrap;html=1;fontSize=23;" vertex="1" parent="1">
                    <mxGeometry x="597.5" y="639.88" width="237" height="60" as="geometry"/>
                </mxCell>
                <mxCell id="anJ-4cLYIhTmXqpNFNdk-25" value="" style="endArrow=classic;html=1;fontSize=22;entryX=0;entryY=0.5;entryDx=0;entryDy=0;strokeWidth=2;" edge="1" parent="1" target="anJ-4cLYIhTmXqpNFNdk-24">
                    <mxGeometry width="50" height="50" relative="1" as="geometry">
                        <mxPoint x="527.5" y="669.88" as="sourcePoint"/>
                        <mxPoint x="577.5" y="619.88" as="targetPoint"/>
                    </mxGeometry>
                </mxCell>
                <mxCell id="anJ-4cLYIhTmXqpNFNdk-26" value="&lt;font style=&quot;font-size: 22px;&quot;&gt;模型训练&lt;/font&gt;" style="rounded=1;whiteSpace=wrap;html=1;fontSize=23;" vertex="1" parent="1">
                    <mxGeometry x="347" y="919.88" width="139" height="60" as="geometry"/>
                </mxCell>
                <mxCell id="anJ-4cLYIhTmXqpNFNdk-27" value="3特征" style="text;html=1;align=center;verticalAlign=middle;resizable=0;points=[];autosize=1;strokeColor=none;fillColor=none;fontSize=19;" vertex="1" parent="1">
                    <mxGeometry x="527.5" y="629.88" width="70" height="40" as="geometry"/>
                </mxCell>
                <mxCell id="anJ-4cLYIhTmXqpNFNdk-28" value="" style="endArrow=classic;html=1;strokeWidth=2;fontSize=22;" edge="1" parent="1">
                    <mxGeometry width="50" height="50" relative="1" as="geometry">
                        <mxPoint x="416.5" y="829.88" as="sourcePoint"/>
                        <mxPoint x="416.5" y="919.88" as="targetPoint"/>
                    </mxGeometry>
                </mxCell>
                <mxCell id="anJ-4cLYIhTmXqpNFNdk-29" value="" style="endArrow=none;html=1;strokeWidth=2;fontSize=22;entryX=0.5;entryY=1;entryDx=0;entryDy=0;" edge="1" parent="1" target="anJ-4cLYIhTmXqpNFNdk-24">
                    <mxGeometry width="50" height="50" relative="1" as="geometry">
                        <mxPoint x="417.5" y="869.88" as="sourcePoint"/>
                        <mxPoint x="727.5" y="779.88" as="targetPoint"/>
                        <Array as="points">
                            <mxPoint x="716.5" y="869.88"/>
                        </Array>
                    </mxGeometry>
                </mxCell>
                <mxCell id="anJ-4cLYIhTmXqpNFNdk-30" value="" style="endArrow=classic;html=1;fontSize=23;strokeWidth=2;" edge="1" parent="1">
                    <mxGeometry width="50" height="50" relative="1" as="geometry">
                        <mxPoint x="416" y="979.88" as="sourcePoint"/>
                        <mxPoint x="416" y="1039.88" as="targetPoint"/>
                    </mxGeometry>
                </mxCell>
                <mxCell id="anJ-4cLYIhTmXqpNFNdk-31" value="&lt;font style=&quot;font-size: 22px;&quot;&gt;固定模型并生成特征提取器&lt;/font&gt;" style="rounded=1;whiteSpace=wrap;html=1;fontSize=23;" vertex="1" parent="1">
                    <mxGeometry x="280" y="1039.88" width="274" height="60" as="geometry"/>
                </mxCell>
                <mxCell id="anJ-4cLYIhTmXqpNFNdk-32" value="" style="endArrow=classic;html=1;strokeWidth=2;" edge="1" parent="1">
                    <mxGeometry width="50" height="50" relative="1" as="geometry">
                        <mxPoint x="416.5" y="1099.88" as="sourcePoint"/>
                        <mxPoint x="416.5" y="1169.88" as="targetPoint"/>
                    </mxGeometry>
                </mxCell>
                <mxCell id="anJ-4cLYIhTmXqpNFNdk-33" value="" style="endArrow=classic;html=1;strokeWidth=2;" edge="1" parent="1">
                    <mxGeometry width="50" height="50" relative="1" as="geometry">
                        <mxPoint x="418" y="320" as="sourcePoint"/>
                        <mxPoint x="418" y="390" as="targetPoint"/>
                    </mxGeometry>
                </mxCell>
            </root>
        </mxGraphModel>
    </diagram>
</mxfile>